<svg id="svg-miromannino" viewBox="0 0 256 50" version="1.1" xmlns="http://www.w3.org/2000/svg" xmlns:xlink="http://www.w3.org/1999/xlink" xml:space="preserve" style="fill-rule:evenodd;clip-rule:evenodd;stroke-linejoin:round;stroke-miterlimit:1.41421;">
  <g transform="matrix(1.07759,0,0,1.07759,-0.405172,-1.06034)">
    <g class="g-opening-bracket" transform="matrix(1,0,0,1,-1,37)">
      <path d="M14.832,-32.208L14.832,-35.088L11.472,-35.088C10.864,-35.088 10.256,-34.952 9.648,-34.68C9.04,-34.408 8.488,-34.008 7.992,-33.48C7.496,-32.952 7.088,-32.296 6.768,-31.512C6.448,-30.728 6.288,-29.824 6.288,-28.8L6.288,-20.064C6.288,-19.232 6.176,-18.464 5.952,-17.76C5.728,-17.056 5.432,-16.456 5.064,-15.96C4.696,-15.464 4.272,-15.08 3.792,-14.808C3.312,-14.536 2.816,-14.4 2.304,-14.4L2.304,-11.136C2.816,-11.136 3.312,-11.008 3.792,-10.752C4.272,-10.496 4.696,-10.128 5.064,-9.648C5.432,-9.168 5.728,-8.576 5.952,-7.872C6.176,-7.168 6.288,-6.384 6.288,-5.52L6.288,3.168C6.288,4.192 6.448,5.096 6.768,5.88C7.088,6.664 7.496,7.32 7.992,7.848C8.488,8.376 9.04,8.776 9.648,9.048C10.256,9.32 10.864,9.456 11.472,9.456L14.832,9.456L14.832,6.576L12.432,6.576C11.952,6.576 11.568,6.456 11.28,6.216C10.992,5.976 10.76,5.656 10.584,5.256C10.408,4.856 10.288,4.408 10.224,3.912C10.16,3.416 10.128,2.928 10.128,2.448L10.128,-6.288C10.128,-7.504 9.96,-8.512 9.624,-9.312C9.288,-10.112 8.896,-10.76 8.448,-11.256C8,-11.752 7.544,-12.112 7.08,-12.336C6.616,-12.56 6.24,-12.688 5.952,-12.72L5.952,-12.864C6.24,-12.928 6.616,-13.088 7.08,-13.344C7.544,-13.6 8,-13.984 8.448,-14.496C8.896,-15.008 9.288,-15.656 9.624,-16.44C9.96,-17.224 10.128,-18.176 10.128,-19.296L10.128,-28.08C10.128,-28.592 10.16,-29.096 10.224,-29.592C10.288,-30.088 10.408,-30.528 10.584,-30.912C10.76,-31.296 10.992,-31.608 11.28,-31.848C11.568,-32.088 11.952,-32.208 12.432,-32.208L14.832,-32.208Z" style="fill:rgb(248, 119, 94);fill-rule:nonzero;"/>
  </g>
  <g transform="matrix(1,0,0,1,1.37935,-0.316)">
      <g class="g-name">
        <g transform="matrix(1,0,0,1,14,42.3516)">
          <path d="M2.5,0L2.5,-35L9.414,-35L14.375,-8.203L19.336,-35L26.25,-35L26.25,0L21.25,0L21.25,-27.617L16.25,0L12.5,0L7.5,-27.617L7.5,0L2.5,0Z" style="fill:rgb(79,79,79);fill-rule:nonzero;"/>
      </g>
      <g transform="matrix(1,0,0,1,14,42.3516)">
          <rect x="31.484" y="-35" width="5" height="35" style="fill:rgb(79,79,79);fill-rule:nonzero;"/>
      </g>
      <g transform="matrix(1,0,0,1,14,42.3516)">
          <path d="M46.836,-20L48.086,-20C50.169,-20 51.732,-20.439 52.773,-21.318C53.815,-22.197 54.336,-23.633 54.336,-25.625C54.336,-27.617 53.815,-29.053 52.773,-29.932C51.732,-30.811 50.169,-31.25 48.086,-31.25L46.836,-31.25L46.836,-20ZM41.836,0L41.836,-35L48.086,-35C51.81,-35 54.616,-34.277 56.504,-32.832C58.392,-31.387 59.336,-28.984 59.336,-25.625C59.336,-23.542 58.965,-21.797 58.223,-20.391C57.48,-18.984 56.393,-18.021 54.961,-17.5L60.586,0L55.625,0L50.586,-16.25L46.836,-16.25L46.836,0L41.836,0Z" style="fill:rgb(79,79,79);fill-rule:nonzero;"/>
      </g>
      <g transform="matrix(1,0,0,1,14,42)">
          <path d="M72.5,0.352C70.742,0.352 69.235,0.085 67.979,-0.449C66.722,-0.983 65.723,-1.764 64.98,-2.793C64.238,-3.822 63.698,-5.029 63.359,-6.416C63.021,-7.803 62.852,-9.414 62.852,-11.25L62.852,-23.945C62.852,-25.781 63.021,-27.383 63.359,-28.75C63.698,-30.117 64.238,-31.305 64.98,-32.314C65.723,-33.324 66.722,-34.082 67.979,-34.59C69.235,-35.098 70.742,-35.352 72.5,-35.352C75.911,-35.352 78.372,-34.375 79.883,-32.422C81.393,-30.469 82.148,-27.643 82.148,-23.945L82.148,-11.25C82.148,-9.44 81.976,-7.842 81.631,-6.455C81.286,-5.068 80.742,-3.857 80,-2.822C79.258,-1.787 78.258,-0.999 77.002,-0.459C75.745,0.081 74.245,0.352 72.5,0.352ZM72.5,-3.75C74.258,-3.75 75.472,-4.277 76.143,-5.332C76.813,-6.387 77.148,-7.943 77.148,-10L77.148,-25.195C77.148,-27.227 76.816,-28.743 76.152,-29.746C75.488,-30.749 74.271,-31.25 72.5,-31.25C70.729,-31.25 69.512,-30.749 68.848,-29.746C68.184,-28.743 67.852,-27.227 67.852,-25.195L67.852,-10C67.852,-7.943 68.187,-6.387 68.857,-5.332C69.528,-4.277 70.742,-3.75 72.5,-3.75Z" style="fill:rgb(79,79,79);fill-rule:nonzero;"/>
      </g>
  </g>
  <g class="g-surname" style="opacity: 0;" transform="matrix(1,0,0,1,0.882938,0)">
    <g transform="matrix(0.673724,0,0,0.673724,98.8624,41.8341)">
      <path d="M13.344,-35.088L-0.816,0.768L2.64,0.768L16.848,-35.088L13.344,-35.088Z" style="fill:rgb(248, 119, 94);fill-rule:nonzero;"/>
  </g>
  <g transform="matrix(0.673724,0,0,0.673724,95.8624,41.8341)">
      <path d="M29.328,-35.088L15.168,0.768L18.624,0.768L32.832,-35.088L29.328,-35.088Z" style="fill:rgb(248, 119, 94);fill-rule:nonzero;"/>
  </g>
</g>
<g class="g-surname" style="opacity: 0;" transform="matrix(1,0,0,1,8.90547,0)">
    <g transform="matrix(0.681456,0,0,0.681456,111.303,42.3516)">
      <path d="M2.5,0L2.5,-35L9.414,-35L14.375,-8.203L19.336,-35L26.25,-35L26.25,0L21.25,0L21.25,-27.617L16.25,0L12.5,0L7.5,-27.617L7.5,0L2.5,0Z" style="fill:rgb(155,155,155);fill-rule:nonzero;"/>
  </g>
  <g transform="matrix(0.681456,0,0,0.681456,111.303,42.3516)">
      <path d="M36.563,-12.5L41.563,-12.5L39.063,-27.5L36.563,-12.5ZM29.063,0L36.563,-35L41.563,-35L49.063,0L44.063,0L42.188,-8.75L35.938,-8.75L34.063,0L29.063,0Z" style="fill:rgb(155,155,155);fill-rule:nonzero;"/>
  </g>
  <g transform="matrix(0.681456,0,0,0.681456,111.303,42.3516)">
      <path d="M51.875,0L51.875,-35L55.625,-35L64.375,-13.359L64.375,-35L69.375,-35L69.375,0L65.82,0L56.875,-23.281L56.875,0L51.875,0Z" style="fill:rgb(155,155,155);fill-rule:nonzero;"/>
  </g>
  <g transform="matrix(0.681456,0,0,0.681456,111.303,42.3516)">
      <path d="M74.375,0L74.375,-35L78.125,-35L86.875,-13.359L86.875,-35L91.875,-35L91.875,0L88.32,0L79.375,-23.281L79.375,0L74.375,0Z" style="fill:rgb(155,155,155);fill-rule:nonzero;"/>
  </g>
  <g transform="matrix(0.681456,0,0,0.681456,111.303,42.3516)">
      <rect x="97.109" y="-35" width="5" height="35" style="fill:rgb(155,155,155);fill-rule:nonzero;"/>
  </g>
  <g transform="matrix(0.681456,0,0,0.681456,111.303,42.3516)">
      <path d="M107.461,0L107.461,-35L111.211,-35L119.961,-13.359L119.961,-35L124.961,-35L124.961,0L121.406,0L112.461,-23.281L112.461,0L107.461,0Z" style="fill:rgb(155,155,155);fill-rule:nonzero;"/>
  </g>
  <g transform="matrix(0.681456,0,0,0.681456,111.303,42.112)">
      <path d="M138.984,0.352C137.227,0.352 135.719,0.085 134.463,-0.449C133.206,-0.983 132.207,-1.764 131.465,-2.793C130.723,-3.822 130.182,-5.029 129.844,-6.416C129.505,-7.803 129.336,-9.414 129.336,-11.25L129.336,-23.945C129.336,-25.781 129.505,-27.383 129.844,-28.75C130.182,-30.117 130.723,-31.305 131.465,-32.314C132.207,-33.324 133.206,-34.082 134.463,-34.59C135.719,-35.098 137.227,-35.352 138.984,-35.352C142.396,-35.352 144.857,-34.375 146.367,-32.422C147.878,-30.469 148.633,-27.643 148.633,-23.945L148.633,-11.25C148.633,-9.44 148.46,-7.842 148.115,-6.455C147.77,-5.068 147.227,-3.857 146.484,-2.822C145.742,-1.787 144.743,-0.999 143.486,-0.459C142.23,0.081 140.729,0.352 138.984,0.352ZM138.984,-3.75C140.742,-3.75 141.956,-4.277 142.627,-5.332C143.298,-6.387 143.633,-7.943 143.633,-10L143.633,-25.195C143.633,-27.227 143.301,-28.743 142.637,-29.746C141.973,-30.749 140.755,-31.25 138.984,-31.25C137.214,-31.25 135.996,-30.749 135.332,-29.746C134.668,-28.743 134.336,-27.227 134.336,-25.195L134.336,-10C134.336,-7.943 134.671,-6.387 135.342,-5.332C136.012,-4.277 137.227,-3.75 138.984,-3.75Z" style="fill:rgb(155,155,155);fill-rule:nonzero;"/>
  </g>
</g>
</g>
<g class="g-closing-bracket" transform="matrix(1,0,0,1,3,37)">
  <path d="M96.922,6.576L96.922,9.456L100.282,9.456C100.89,9.456 101.498,9.32 102.106,9.048C102.714,8.776 103.266,8.376 103.762,7.848C104.258,7.32 104.666,6.664 104.986,5.88C105.306,5.096 105.466,4.192 105.466,3.168L105.466,-5.52C105.466,-6.352 105.578,-7.112 105.802,-7.8C106.026,-8.488 106.322,-9.08 106.69,-9.576C107.058,-10.072 107.482,-10.456 107.962,-10.728C108.442,-11 108.938,-11.136 109.45,-11.136L109.45,-14.4C108.938,-14.4 108.442,-14.528 107.962,-14.784C107.482,-15.04 107.058,-15.416 106.69,-15.912C106.322,-16.408 106.026,-17.008 105.802,-17.712C105.578,-18.416 105.466,-19.2 105.466,-20.064L105.466,-28.8C105.466,-29.824 105.306,-30.728 104.986,-31.512C104.666,-32.296 104.258,-32.952 103.762,-33.48C103.266,-34.008 102.714,-34.408 102.106,-34.68C101.498,-34.952 100.89,-35.088 100.282,-35.088L96.922,-35.088L96.922,-32.208L99.322,-32.208C99.802,-32.208 100.186,-32.088 100.474,-31.848C100.762,-31.608 100.994,-31.288 101.17,-30.888C101.346,-30.488 101.466,-30.04 101.53,-29.544C101.594,-29.048 101.626,-28.528 101.626,-27.984L101.626,-19.296C101.626,-18.08 101.794,-17.072 102.13,-16.272C102.466,-15.472 102.858,-14.824 103.306,-14.328C103.754,-13.832 104.21,-13.472 104.674,-13.248C105.138,-13.024 105.514,-12.896 105.802,-12.864L105.802,-12.72C105.514,-12.656 105.138,-12.496 104.674,-12.24C104.21,-11.984 103.754,-11.6 103.306,-11.088C102.858,-10.576 102.466,-9.928 102.13,-9.144C101.794,-8.36 101.626,-7.408 101.626,-6.288L101.626,2.448C101.626,2.96 101.594,3.464 101.53,3.96C101.466,4.456 101.346,4.896 101.17,5.28C100.994,5.664 100.762,5.976 100.474,6.216C100.186,6.456 99.802,6.576 99.322,6.576L96.922,6.576Z" style="fill:rgb(248, 119, 94);fill-rule:nonzero;"/>
</g>
</g>
</svg>