<svg id="svg-miromannino" viewBox="0 0 230 26" version="1.1" xmlns="http://www.w3.org/2000/svg" xmlns:xlink="http://www.w3.org/1999/xlink" xml:space="preserve" style="fill-rule:evenodd;clip-rule:evenodd;stroke-linejoin:round;stroke-miterlimit:1.41421;">
    <g transform="matrix(0.765949,0,0,0.765949,-0.944336,23.7529)">
        <path class="brand-letter" d="M16.218,0L6.732,-24.785L6.579,-24.785C6.757,-22.822 6.847,-20.489 6.847,-17.786L6.847,0L3.844,0L3.844,-27.96L8.74,-27.96L17.595,-4.896L17.748,-4.896L26.679,-27.96L31.536,-27.96L31.536,0L28.285,0L28.285,-18.015C28.285,-20.081 28.374,-22.325 28.553,-24.747L28.4,-24.747L18.838,0L16.218,0Z" style="fill:rgb(84,84,84);fill-rule:nonzero;"/>
        <rect class="brand-letter" x="39.205" y="-27.96" width="3.251" height="27.96" style="fill:rgb(84,84,84);fill-rule:nonzero;"/>
        <path class="brand-letter" d="M53.377,-11.628L53.377,0L50.125,0L50.125,-27.96L57.794,-27.96C61.224,-27.96 63.758,-27.303 65.396,-25.99C67.035,-24.677 67.854,-22.701 67.854,-20.062C67.854,-16.364 65.98,-13.865 62.231,-12.565L69.824,0L65.98,0L59.21,-11.628L53.377,-11.628ZM53.377,-14.42L57.833,-14.42C60.128,-14.42 61.811,-14.876 62.882,-15.787C63.952,-16.699 64.488,-18.066 64.488,-19.89C64.488,-21.738 63.943,-23.071 62.853,-23.887C61.763,-24.703 60.013,-25.111 57.603,-25.111L53.377,-25.111L53.377,-14.42Z" style="fill:rgb(84,84,84);fill-rule:nonzero;"/>
        <path class="brand-letter" d="M98.606,-14.018C98.606,-9.543 97.475,-6.024 95.212,-3.462C92.948,-0.899 89.803,0.382 85.774,0.382C81.655,0.382 78.478,-0.877 76.24,-3.395C74.002,-5.913 72.884,-9.467 72.884,-14.057C72.884,-18.608 74.006,-22.137 76.25,-24.642C78.494,-27.147 81.681,-28.4 85.812,-28.4C89.828,-28.4 92.964,-27.125 95.221,-24.575C97.478,-22.025 98.606,-18.506 98.606,-14.018ZM76.326,-14.018C76.326,-10.232 77.132,-7.36 78.745,-5.403C80.358,-3.446 82.701,-2.467 85.774,-2.467C88.872,-2.467 91.211,-3.442 92.792,-5.393C94.373,-7.344 95.164,-10.219 95.164,-14.018C95.164,-17.779 94.376,-20.632 92.802,-22.577C91.227,-24.521 88.897,-25.493 85.812,-25.493C82.714,-25.493 80.358,-24.514 78.745,-22.557C77.132,-20.6 76.326,-17.754 76.326,-14.018Z" style="fill:rgb(84,84,84);fill-rule:nonzero;"/>
        <path class="brand-letter" d="M127.389,0L117.903,-24.785L117.75,-24.785C117.928,-22.822 118.018,-20.489 118.018,-17.786L118.018,0L115.015,0L115.015,-27.96L119.911,-27.96L128.766,-4.896L128.919,-4.896L137.85,-27.96L142.707,-27.96L142.707,0L139.456,0L139.456,-18.015C139.456,-20.081 139.545,-22.325 139.724,-24.747L139.571,-24.747L130.009,0L127.389,0Z" style="fill:rgb(84,84,84);fill-rule:nonzero;"/>
        <path class="brand-letter" d="M167.952,0L164.471,-8.893L153.264,-8.893L149.822,0L146.532,0L157.586,-28.075L160.321,-28.075L171.318,0L167.952,0ZM163.458,-11.819L160.206,-20.482C159.786,-21.579 159.352,-22.924 158.906,-24.518C158.625,-23.294 158.224,-21.949 157.701,-20.482L154.412,-11.819L163.458,-11.819Z" style="fill:rgb(84,84,84);fill-rule:nonzero;"/>
        <path class="brand-letter" d="M197.002,0L193.292,0L178.011,-23.466L177.858,-23.466C178.062,-20.712 178.164,-18.187 178.164,-15.893L178.164,0L175.162,0L175.162,-27.96L178.834,-27.96L194.076,-4.59L194.229,-4.59C194.203,-4.934 194.146,-6.04 194.057,-7.908C193.968,-9.776 193.936,-11.111 193.961,-11.915L193.961,-27.96L197.002,-27.96L197.002,0Z" style="fill:rgb(84,84,84);fill-rule:nonzero;"/>
        <path class="brand-letter" d="M226.53,0L222.82,0L207.54,-23.466L207.387,-23.466C207.591,-20.712 207.693,-18.187 207.693,-15.893L207.693,0L204.69,0L204.69,-27.96L208.362,-27.96L223.604,-4.59L223.757,-4.59C223.732,-4.934 223.674,-6.04 223.585,-7.908C223.496,-9.776 223.464,-11.111 223.489,-11.915L223.489,-27.96L226.53,-27.96L226.53,0Z" style="fill:rgb(84,84,84);fill-rule:nonzero;"/>
        <rect class="brand-letter" x="234.218" y="-27.96" width="3.251" height="27.96" style="fill:rgb(84,84,84);fill-rule:nonzero;"/>
        <path class="brand-letter" d="M266.979,0L263.269,0L247.988,-23.466L247.835,-23.466C248.039,-20.712 248.141,-18.187 248.141,-15.893L248.141,0L245.138,0L245.138,-27.96L248.81,-27.96L264.053,-4.59L264.206,-4.59C264.18,-4.934 264.123,-6.04 264.034,-7.908C263.944,-9.776 263.912,-11.111 263.938,-11.915L263.938,-27.96L266.979,-27.96L266.979,0Z" style="fill:rgb(84,84,84);fill-rule:nonzero;"/>
        <path class="brand-letter" d="M298.936,-14.018C298.936,-9.543 297.804,-6.024 295.541,-3.462C293.278,-0.899 290.132,0.382 286.103,0.382C281.985,0.382 278.807,-0.877 276.57,-3.395C274.332,-5.913 273.213,-9.467 273.213,-14.057C273.213,-18.608 274.335,-22.137 276.579,-24.642C278.823,-27.147 282.011,-28.4 286.141,-28.4C290.158,-28.4 293.294,-27.125 295.551,-24.575C297.807,-22.025 298.936,-18.506 298.936,-14.018ZM276.656,-14.018C276.656,-10.232 277.462,-7.36 279.075,-5.403C280.688,-3.446 283.031,-2.467 286.103,-2.467C289.201,-2.467 291.541,-3.442 293.122,-5.393C294.703,-7.344 295.493,-10.219 295.493,-14.018C295.493,-17.779 294.706,-20.632 293.132,-22.577C291.557,-24.521 289.227,-25.493 286.141,-25.493C283.043,-25.493 280.688,-24.514 279.075,-22.557C277.462,-20.6 276.656,-17.754 276.656,-14.018Z" style="fill:rgb(84,84,84);fill-rule:nonzero;"/>
    </g>
</svg>
