<svg viewBox="0 0 297 28" version="1.1" xmlns="http://www.w3.org/2000/svg" xmlns:xlink="http://www.w3.org/1999/xlink" xml:space="preserve" style="fill-rule:evenodd;clip-rule:evenodd;stroke-linejoin:round;stroke-miterlimit:1.41421;display: inline;height: 0.8rem;vertical-align: middle;">
  <g transform="matrix(1,0,0,1,-2.33486,-1.11155)">
    <g transform="matrix(1,0,0,1,-264.624,-40.0294)">
      <path d="M285.33,61.375L285.33,53.02C285.33,51.996 285.112,51.229 284.674,50.717C284.237,50.205 283.557,49.95 282.635,49.95C281.424,49.95 280.53,50.297 279.951,50.993C279.373,51.688 279.084,52.758 279.084,54.203L279.084,61.375L277.139,61.375L277.139,53.02C277.139,51.996 276.92,51.229 276.483,50.717C276.045,50.205 275.362,49.95 274.432,49.95C273.213,49.95 272.321,50.315 271.754,51.045C271.188,51.776 270.905,52.973 270.905,54.637L270.905,61.375L268.959,61.375L268.959,48.532L270.541,48.532L270.858,50.289L270.951,50.289C271.319,49.664 271.836,49.176 272.504,48.825C273.172,48.473 273.92,48.297 274.748,48.297C276.756,48.297 278.069,49.024 278.686,50.477L278.78,50.477C279.162,49.805 279.717,49.274 280.444,48.883C281.17,48.493 281.998,48.297 282.928,48.297C284.381,48.297 285.469,48.67 286.192,49.416C286.914,50.162 287.276,51.356 287.276,52.996L287.276,61.375L285.33,61.375Z" style="fill:rgb(255,255,255);fill-rule:nonzero;" />
    </g>
    <g transform="matrix(1,0,0,1,-264.624,-40.0294)">
      <path d="M293.229,61.375L291.283,61.375L291.283,48.532L293.229,48.532L293.229,61.375ZM291.119,45.051C291.119,44.606 291.229,44.28 291.448,44.073C291.666,43.866 291.94,43.762 292.268,43.762C292.58,43.762 292.85,43.868 293.076,44.078C293.303,44.289 293.416,44.614 293.416,45.051C293.416,45.489 293.303,45.815 293.076,46.03C292.85,46.245 292.58,46.352 292.268,46.352C291.94,46.352 291.666,46.245 291.448,46.03C291.229,45.815 291.119,45.489 291.119,45.051Z" style="fill:rgb(255,255,255);fill-rule:nonzero;" />
    </g>
    <g transform="matrix(1,0,0,1,-264.624,-40.0294)">
      <path d="M303.213,48.297C303.783,48.297 304.295,48.344 304.748,48.438L304.479,50.243C303.948,50.125 303.479,50.067 303.073,50.067C302.033,50.067 301.145,50.489 300.406,51.332C299.668,52.176 299.299,53.227 299.299,54.485L299.299,61.375L297.354,61.375L297.354,48.532L298.959,48.532L299.182,50.911L299.276,50.911C299.752,50.075 300.326,49.43 300.998,48.977C301.67,48.524 302.408,48.297 303.213,48.297Z" style="fill:rgb(255,255,255);fill-rule:nonzero;" />
    </g>
    <g transform="matrix(1,0,0,1,-264.624,-40.0294)">
      <path d="M317.756,54.942C317.756,57.036 317.229,58.67 316.174,59.846C315.119,61.022 313.662,61.61 311.803,61.61C310.655,61.61 309.635,61.34 308.744,60.801C307.854,60.262 307.166,59.489 306.682,58.481C306.198,57.473 305.955,56.293 305.955,54.942C305.955,52.848 306.479,51.217 307.526,50.049C308.573,48.881 310.026,48.297 311.885,48.297C313.682,48.297 315.11,48.895 316.168,50.09C317.227,51.286 317.756,52.903 317.756,54.942ZM307.971,54.942C307.971,56.582 308.299,57.832 308.955,58.692C309.612,59.551 310.576,59.981 311.85,59.981C313.123,59.981 314.09,59.553 314.75,58.698C315.41,57.842 315.74,56.59 315.74,54.942C315.74,53.309 315.41,52.069 314.75,51.221C314.09,50.373 313.115,49.95 311.826,49.95C310.553,49.95 309.592,50.368 308.944,51.203C308.295,52.039 307.971,53.286 307.971,54.942Z" style="fill:rgb(255,255,255);fill-rule:nonzero;" />
    </g>
    <g transform="matrix(1,0,0,1,-264.624,-40.0294)">
      <path d="M320.885,60.133C320.885,59.61 321.004,59.213 321.242,58.944C321.481,58.674 321.823,58.539 322.268,58.539C322.721,58.539 323.074,58.674 323.328,58.944C323.582,59.213 323.709,59.61 323.709,60.133C323.709,60.641 323.58,61.032 323.323,61.305C323.065,61.578 322.713,61.715 322.268,61.715C321.869,61.715 321.539,61.592 321.278,61.346C321.016,61.1 320.885,60.696 320.885,60.133Z" style="fill:rgb(255,255,255);fill-rule:nonzero;" />
    </g>
    <g transform="matrix(1,0,0,1,-264.624,-40.0294)">
      <path d="M343.924,61.375L343.924,53.02C343.924,51.996 343.705,51.229 343.268,50.717C342.83,50.205 342.151,49.95 341.229,49.95C340.018,49.95 339.123,50.297 338.545,50.993C337.967,51.688 337.678,52.758 337.678,54.203L337.678,61.375L335.733,61.375L335.733,53.02C335.733,51.996 335.514,51.229 335.076,50.717C334.639,50.205 333.955,49.95 333.026,49.95C331.807,49.95 330.914,50.315 330.348,51.045C329.781,51.776 329.498,52.973 329.498,54.637L329.498,61.375L327.553,61.375L327.553,48.532L329.135,48.532L329.451,50.289L329.545,50.289C329.912,49.664 330.43,49.176 331.098,48.825C331.766,48.473 332.514,48.297 333.342,48.297C335.35,48.297 336.662,49.024 337.28,50.477L337.373,50.477C337.756,49.805 338.311,49.274 339.037,48.883C339.764,48.493 340.592,48.297 341.522,48.297C342.975,48.297 344.063,48.67 344.785,49.416C345.508,50.162 345.869,51.356 345.869,52.996L345.869,61.375L343.924,61.375Z" style="fill:rgb(255,255,255);fill-rule:nonzero;" />
    </g>
    <g transform="matrix(1,0,0,1,-264.624,-40.0294)">
      <path d="M357.776,61.375L357.389,59.547L357.295,59.547C356.655,60.352 356.016,60.897 355.379,61.182C354.742,61.467 353.948,61.61 352.994,61.61C351.721,61.61 350.723,61.282 350,60.625C349.278,59.969 348.916,59.036 348.916,57.825C348.916,55.231 350.99,53.871 355.139,53.746L357.319,53.676L357.319,52.879C357.319,51.871 357.102,51.127 356.668,50.647C356.235,50.166 355.541,49.926 354.588,49.926C353.518,49.926 352.307,50.254 350.955,50.911L350.358,49.422C350.99,49.078 351.684,48.809 352.438,48.614C353.192,48.418 353.948,48.321 354.705,48.321C356.237,48.321 357.371,48.661 358.11,49.34C358.848,50.02 359.217,51.11 359.217,52.61L359.217,61.375L357.776,61.375ZM353.381,60.004C354.592,60.004 355.543,59.672 356.235,59.008C356.926,58.344 357.272,57.414 357.272,56.219L357.272,55.059L355.326,55.141C353.78,55.196 352.664,55.436 351.981,55.862C351.297,56.287 350.955,56.95 350.955,57.848C350.955,58.551 351.168,59.086 351.594,59.453C352.02,59.821 352.615,60.004 353.381,60.004Z" style="fill:rgb(255,255,255);fill-rule:nonzero;" />
    </g>
    <g transform="matrix(1,0,0,1,-264.624,-40.0294)">
      <path d="M372.014,61.375L372.014,53.067C372.014,52.02 371.776,51.239 371.299,50.723C370.823,50.207 370.076,49.95 369.061,49.95C367.717,49.95 366.733,50.313 366.108,51.039C365.483,51.766 365.17,52.965 365.17,54.637L365.17,61.375L363.225,61.375L363.225,48.532L364.807,48.532L365.123,50.289L365.217,50.289C365.615,49.657 366.174,49.166 366.893,48.819C367.612,48.471 368.412,48.297 369.295,48.297C370.842,48.297 372.006,48.67 372.787,49.416C373.569,50.162 373.959,51.356 373.959,52.996L373.959,61.375L372.014,61.375Z" style="fill:rgb(255,255,255);fill-rule:nonzero;" />
    </g>
    <g transform="matrix(1,0,0,1,-264.624,-40.0294)">
      <path d="M386.744,61.375L386.744,53.067C386.744,52.02 386.506,51.239 386.03,50.723C385.553,50.207 384.807,49.95 383.791,49.95C382.448,49.95 381.463,50.313 380.838,51.039C380.213,51.766 379.901,52.965 379.901,54.637L379.901,61.375L377.955,61.375L377.955,48.532L379.537,48.532L379.854,50.289L379.948,50.289C380.346,49.657 380.905,49.166 381.623,48.819C382.342,48.471 383.143,48.297 384.026,48.297C385.573,48.297 386.737,48.67 387.518,49.416C388.299,50.162 388.69,51.356 388.69,52.996L388.69,61.375L386.744,61.375Z" style="fill:rgb(255,255,255);fill-rule:nonzero;" />
    </g>
    <g transform="matrix(1,0,0,1,-264.624,-40.0294)">
      <path d="M394.631,61.375L392.686,61.375L392.686,48.532L394.631,48.532L394.631,61.375ZM392.522,45.051C392.522,44.606 392.631,44.28 392.85,44.073C393.069,43.866 393.342,43.762 393.67,43.762C393.983,43.762 394.252,43.868 394.479,44.078C394.705,44.289 394.819,44.614 394.819,45.051C394.819,45.489 394.705,45.815 394.479,46.03C394.252,46.245 393.983,46.352 393.67,46.352C393.342,46.352 393.069,46.245 392.85,46.03C392.631,45.815 392.522,45.489 392.522,45.051Z" style="fill:rgb(255,255,255);fill-rule:nonzero;" />
    </g>
    <g transform="matrix(1,0,0,1,-264.624,-40.0294)">
      <path d="M407.545,61.375L407.545,53.067C407.545,52.02 407.307,51.239 406.83,50.723C406.354,50.207 405.608,49.95 404.592,49.95C403.248,49.95 402.264,50.313 401.639,51.039C401.014,51.766 400.701,52.965 400.701,54.637L400.701,61.375L398.756,61.375L398.756,48.532L400.338,48.532L400.655,50.289L400.748,50.289C401.147,49.657 401.705,49.166 402.424,48.819C403.143,48.471 403.944,48.297 404.826,48.297C406.373,48.297 407.537,48.67 408.319,49.416C409.1,50.162 409.49,51.356 409.49,52.996L409.49,61.375L407.545,61.375Z" style="fill:rgb(255,255,255);fill-rule:nonzero;" />
    </g>
    <g transform="matrix(1,0,0,1,-264.624,-40.0294)">
      <path d="M424.573,54.942C424.573,57.036 424.045,58.67 422.99,59.846C421.936,61.022 420.479,61.61 418.619,61.61C417.471,61.61 416.451,61.34 415.561,60.801C414.67,60.262 413.983,59.489 413.498,58.481C413.014,57.473 412.772,56.293 412.772,54.942C412.772,52.848 413.295,51.217 414.342,50.049C415.389,48.881 416.842,48.297 418.701,48.297C420.498,48.297 421.926,48.895 422.985,50.09C424.043,51.286 424.573,52.903 424.573,54.942ZM414.787,54.942C414.787,56.582 415.115,57.832 415.772,58.692C416.428,59.551 417.393,59.981 418.666,59.981C419.94,59.981 420.906,59.553 421.567,58.698C422.227,57.842 422.557,56.59 422.557,54.942C422.557,53.309 422.227,52.069 421.567,51.221C420.906,50.373 419.932,49.95 418.643,49.95C417.369,49.95 416.408,50.368 415.76,51.203C415.112,52.039 414.787,53.286 414.787,54.942Z" style="fill:rgb(255,255,255);fill-rule:nonzero;" />
    </g>
    <g transform="matrix(1,0,0,1,-264.624,-40.0294)">
      <path d="M446.076,52.832C446.076,53.942 445.905,54.957 445.561,55.879C445.217,56.801 444.733,57.516 444.108,58.024C443.483,58.532 442.764,58.786 441.951,58.786C441.28,58.786 440.713,58.582 440.252,58.176C439.791,57.77 439.518,57.25 439.432,56.618L439.338,56.618C439.026,57.297 438.578,57.828 437.996,58.211C437.414,58.594 436.725,58.786 435.928,58.786C434.756,58.786 433.84,58.385 433.18,57.584C432.52,56.784 432.19,55.696 432.19,54.321C432.19,52.727 432.651,51.432 433.573,50.436C434.494,49.44 435.705,48.942 437.205,48.942C437.737,48.942 438.338,48.991 439.01,49.088C439.682,49.186 440.287,49.321 440.826,49.493L440.533,55L440.533,55.258C440.533,56.649 441.053,57.344 442.092,57.344C442.803,57.344 443.381,56.924 443.826,56.084C444.272,55.245 444.494,54.153 444.494,52.809C444.494,51.395 444.205,50.157 443.627,49.094C443.049,48.032 442.227,47.213 441.16,46.639C440.094,46.065 438.869,45.778 437.487,45.778C435.744,45.778 434.229,46.139 432.94,46.862C431.651,47.584 430.666,48.616 429.987,49.955C429.307,51.295 428.967,52.844 428.967,54.602C428.967,56.985 429.596,58.817 430.854,60.098C432.112,61.379 433.924,62.02 436.291,62.02C437.932,62.02 439.635,61.684 441.401,61.012L441.401,62.571C439.901,63.227 438.198,63.555 436.291,63.555C433.455,63.555 431.254,62.776 429.688,61.217C428.121,59.659 427.338,57.481 427.338,54.684C427.338,52.653 427.756,50.844 428.592,49.258C429.428,47.672 430.619,46.444 432.166,45.573C433.713,44.702 435.487,44.266 437.487,44.266C439.166,44.266 440.66,44.62 441.969,45.327C443.278,46.034 444.289,47.037 445.004,48.338C445.719,49.639 446.076,51.137 446.076,52.832ZM433.959,54.368C433.959,56.352 434.721,57.344 436.244,57.344C437.862,57.344 438.74,56.121 438.881,53.676L439.045,50.618C438.483,50.461 437.869,50.383 437.205,50.383C436.19,50.383 435.395,50.735 434.821,51.438C434.246,52.141 433.959,53.118 433.959,54.368Z" style="fill:rgb(255,255,255);fill-rule:nonzero;" />
    </g>
    <g transform="matrix(1,0,0,1,-264.624,-40.0294)">
      <path d="M460.069,48.532L460.069,49.762L457.69,50.043C457.908,50.317 458.104,50.674 458.276,51.116C458.448,51.557 458.533,52.055 458.533,52.61C458.533,53.868 458.104,54.871 457.244,55.621C456.385,56.371 455.205,56.746 453.705,56.746C453.323,56.746 452.963,56.715 452.627,56.653C451.799,57.09 451.385,57.641 451.385,58.305C451.385,58.657 451.53,58.916 451.819,59.084C452.108,59.252 452.604,59.336 453.307,59.336L455.58,59.336C456.971,59.336 458.039,59.629 458.785,60.215C459.531,60.801 459.905,61.653 459.905,62.77C459.905,64.192 459.334,65.276 458.194,66.022C457.053,66.768 455.389,67.141 453.201,67.141C451.522,67.141 450.227,66.828 449.317,66.203C448.406,65.578 447.951,64.696 447.951,63.555C447.951,62.774 448.201,62.098 448.701,61.528C449.201,60.957 449.905,60.571 450.811,60.368C450.483,60.219 450.207,59.989 449.985,59.676C449.762,59.364 449.651,59 449.651,58.586C449.651,58.118 449.776,57.707 450.026,57.356C450.276,57.004 450.67,56.664 451.209,56.336C450.545,56.063 450.004,55.598 449.586,54.942C449.168,54.286 448.959,53.536 448.959,52.692C448.959,51.286 449.381,50.202 450.225,49.44C451.069,48.678 452.264,48.297 453.811,48.297C454.483,48.297 455.088,48.375 455.627,48.532L460.069,48.532ZM449.826,63.532C449.826,64.227 450.119,64.754 450.705,65.114C451.291,65.473 452.131,65.653 453.225,65.653C454.858,65.653 456.067,65.409 456.852,64.92C457.637,64.432 458.03,63.77 458.03,62.934C458.03,62.239 457.815,61.756 457.385,61.487C456.955,61.217 456.147,61.082 454.959,61.082L452.627,61.082C451.744,61.082 451.057,61.293 450.565,61.715C450.073,62.137 449.826,62.743 449.826,63.532ZM450.881,52.645C450.881,53.543 451.135,54.223 451.643,54.684C452.151,55.145 452.858,55.375 453.764,55.375C455.662,55.375 456.612,54.453 456.612,52.61C456.612,50.68 455.651,49.715 453.729,49.715C452.815,49.715 452.112,49.961 451.619,50.453C451.127,50.946 450.881,51.676 450.881,52.645Z" style="fill:rgb(255,255,255);fill-rule:nonzero;" />
    </g>
    <g transform="matrix(1,0,0,1,-264.624,-40.0294)">
      <path d="M479.076,61.375L479.076,53.02C479.076,51.996 478.858,51.229 478.42,50.717C477.983,50.205 477.303,49.95 476.381,49.95C475.17,49.95 474.276,50.297 473.698,50.993C473.119,51.688 472.83,52.758 472.83,54.203L472.83,61.375L470.885,61.375L470.885,53.02C470.885,51.996 470.666,51.229 470.229,50.717C469.791,50.205 469.108,49.95 468.178,49.95C466.959,49.95 466.067,50.315 465.5,51.045C464.934,51.776 464.651,52.973 464.651,54.637L464.651,61.375L462.705,61.375L462.705,48.532L464.287,48.532L464.604,50.289L464.698,50.289C465.065,49.664 465.582,49.176 466.25,48.825C466.918,48.473 467.666,48.297 468.494,48.297C470.502,48.297 471.815,49.024 472.432,50.477L472.526,50.477C472.908,49.805 473.463,49.274 474.19,48.883C474.916,48.493 475.744,48.297 476.674,48.297C478.127,48.297 479.215,48.67 479.938,49.416C480.66,50.162 481.022,51.356 481.022,52.996L481.022,61.375L479.076,61.375Z" style="fill:rgb(255,255,255);fill-rule:nonzero;" />
    </g>
    <g transform="matrix(1,0,0,1,-264.624,-40.0294)">
      <path d="M492.928,61.375L492.541,59.547L492.448,59.547C491.807,60.352 491.168,60.897 490.531,61.182C489.895,61.467 489.1,61.61 488.147,61.61C486.873,61.61 485.875,61.282 485.153,60.625C484.43,59.969 484.069,59.036 484.069,57.825C484.069,55.231 486.143,53.871 490.291,53.746L492.471,53.676L492.471,52.879C492.471,51.871 492.254,51.127 491.821,50.647C491.387,50.166 490.694,49.926 489.74,49.926C488.67,49.926 487.459,50.254 486.108,50.911L485.51,49.422C486.143,49.078 486.836,48.809 487.59,48.614C488.344,48.418 489.1,48.321 489.858,48.321C491.389,48.321 492.524,48.661 493.262,49.34C494,50.02 494.369,51.11 494.369,52.61L494.369,61.375L492.928,61.375ZM488.533,60.004C489.744,60.004 490.696,59.672 491.387,59.008C492.078,58.344 492.424,57.414 492.424,56.219L492.424,55.059L490.479,55.141C488.932,55.196 487.817,55.436 487.133,55.862C486.449,56.287 486.108,56.95 486.108,57.848C486.108,58.551 486.321,59.086 486.746,59.453C487.172,59.821 487.768,60.004 488.533,60.004Z" style="fill:rgb(255,255,255);fill-rule:nonzero;" />
    </g>
    <g transform="matrix(1,0,0,1,-264.624,-40.0294)">
      <path d="M500.323,61.375L498.377,61.375L498.377,48.532L500.323,48.532L500.323,61.375ZM498.213,45.051C498.213,44.606 498.323,44.28 498.541,44.073C498.76,43.866 499.033,43.762 499.362,43.762C499.674,43.762 499.944,43.868 500.17,44.078C500.397,44.289 500.51,44.614 500.51,45.051C500.51,45.489 500.397,45.815 500.17,46.03C499.944,46.245 499.674,46.352 499.362,46.352C499.033,46.352 498.76,46.245 498.541,46.03C498.323,45.815 498.213,45.489 498.213,45.051Z" style="fill:rgb(255,255,255);fill-rule:nonzero;" />
    </g>
    <g transform="matrix(1,0,0,1,-264.624,-40.0294)">
      <rect x="504.448" y="43.141" width="1.945" height="18.234" style="fill:rgb(255,255,255);fill-rule:nonzero;" />
    </g>
    <g transform="matrix(1,0,0,1,-264.624,-40.0294)">
      <path d="M510.237,60.133C510.237,59.61 510.356,59.213 510.594,58.944C510.832,58.674 511.174,58.539 511.619,58.539C512.073,58.539 512.426,58.674 512.68,58.944C512.934,59.213 513.061,59.61 513.061,60.133C513.061,60.641 512.932,61.032 512.674,61.305C512.416,61.578 512.065,61.715 511.619,61.715C511.221,61.715 510.891,61.592 510.629,61.346C510.367,61.1 510.237,60.696 510.237,60.133Z" style="fill:rgb(255,255,255);fill-rule:nonzero;" />
    </g>
    <g transform="matrix(1,0,0,1,-264.624,-40.0294)">
      <path d="M522.037,61.61C520.178,61.61 518.739,61.037 517.719,59.893C516.699,58.748 516.19,57.129 516.19,55.036C516.19,52.887 516.707,51.227 517.742,50.055C518.778,48.883 520.252,48.297 522.166,48.297C522.783,48.297 523.401,48.364 524.018,48.496C524.635,48.629 525.119,48.786 525.471,48.965L524.873,50.618C524.444,50.446 523.975,50.303 523.467,50.19C522.959,50.077 522.51,50.02 522.119,50.02C519.51,50.02 518.205,51.684 518.205,55.012C518.205,56.59 518.524,57.801 519.16,58.645C519.797,59.489 520.74,59.911 521.99,59.911C523.061,59.911 524.158,59.68 525.283,59.219L525.283,60.942C524.424,61.387 523.342,61.61 522.037,61.61Z" style="fill:rgb(255,255,255);fill-rule:nonzero;" />
    </g>
    <g transform="matrix(1,0,0,1,-264.624,-40.0294)">
      <path d="M539.416,54.942C539.416,57.036 538.889,58.67 537.834,59.846C536.78,61.022 535.323,61.61 533.463,61.61C532.315,61.61 531.295,61.34 530.405,60.801C529.514,60.262 528.826,59.489 528.342,58.481C527.858,57.473 527.615,56.293 527.615,54.942C527.615,52.848 528.139,51.217 529.186,50.049C530.233,48.881 531.686,48.297 533.545,48.297C535.342,48.297 536.77,48.895 537.828,50.09C538.887,51.286 539.416,52.903 539.416,54.942ZM529.631,54.942C529.631,56.582 529.959,57.832 530.615,58.692C531.272,59.551 532.237,59.981 533.51,59.981C534.783,59.981 535.75,59.553 536.41,58.698C537.071,57.842 537.401,56.59 537.401,54.942C537.401,53.309 537.071,52.069 536.41,51.221C535.75,50.373 534.776,49.95 533.487,49.95C532.213,49.95 531.252,50.368 530.604,51.203C529.955,52.039 529.631,53.286 529.631,54.942Z" style="fill:rgb(255,255,255);fill-rule:nonzero;" />
    </g>
    <g transform="matrix(1,0,0,1,-264.624,-40.0294)">
      <path d="M559.198,61.375L559.198,53.02C559.198,51.996 558.979,51.229 558.541,50.717C558.104,50.205 557.424,49.95 556.502,49.95C555.291,49.95 554.397,50.297 553.819,50.993C553.24,51.688 552.951,52.758 552.951,54.203L552.951,61.375L551.006,61.375L551.006,53.02C551.006,51.996 550.787,51.229 550.35,50.717C549.912,50.205 549.229,49.95 548.299,49.95C547.08,49.95 546.188,50.315 545.621,51.045C545.055,51.776 544.772,52.973 544.772,54.637L544.772,61.375L542.826,61.375L542.826,48.532L544.408,48.532L544.725,50.289L544.819,50.289C545.186,49.664 545.703,49.176 546.371,48.825C547.039,48.473 547.787,48.297 548.615,48.297C550.623,48.297 551.936,49.024 552.553,50.477L552.647,50.477C553.03,49.805 553.584,49.274 554.311,48.883C555.037,48.493 555.865,48.297 556.795,48.297C558.248,48.297 559.336,48.67 560.059,49.416C560.781,50.162 561.143,51.356 561.143,52.996L561.143,61.375L559.198,61.375Z" style="fill:rgb(255,255,255);fill-rule:nonzero;" />
    </g>
  </g>
</svg>